<?xml version="1.0" encoding="utf-8"?>
<!-- Generator: Adobe Illustrator 18.0.0, SVG Export Plug-In . SVG Version: 6.00 Build 0)  -->
<!DOCTYPE svg PUBLIC "-//W3C//DTD SVG 1.1//EN" "http://www.w3.org/Graphics/SVG/1.1/DTD/svg11.dtd">
<svg version="1.1" id="Layer_1" xmlns="http://www.w3.org/2000/svg" xmlns:xlink="http://www.w3.org/1999/xlink" x="0px" y="0px"
	 viewBox="0 0 732 101" enable-background="new 0 0 732 101" xml:space="preserve">
<g>
	<path fill="#FFFFFF" d="M4.1,5.6h12.1v77.6h29.2v12.1H4.1V5.6z"/>
	<path fill="#FFFFFF" d="M105.5,37.2h12.2v58.1h-12.2V83.7c-6,8.8-13.3,13.2-22.2,13.2c-7.6,0-14.2-3-19.6-9
		c-5.4-6-8.1-13.3-8.1-21.9c0-8.1,2.7-15.2,8.2-21.3c5.5-6.1,11.9-9.1,19.3-9.1c4.6,0,8.9,1.2,13,3.7c4.1,2.5,7.2,5.7,9.5,9.7V37.2z
		 M107.2,66.4c0-5.3-1.9-9.8-5.7-13.6c-3.8-3.8-8.4-5.7-13.7-5.7c-5.2,0-9.7,1.9-13.5,5.6c-3.9,3.8-5.8,8.2-5.8,13.2
		c0,5.5,1.9,10.2,5.6,14c3.8,3.8,8.3,5.8,13.7,5.8c5.3,0,9.9-1.9,13.7-5.7C105.3,76.2,107.2,71.7,107.2,66.4z"/>
	<path fill="#FFFFFF" d="M149.8,37.2v12c2.7-4.8,5.4-8.2,8-10.4c2.6-2.1,6-3.2,10.2-3.2c1.2,0,2.9,0.3,5.1,0.8l-3.7,12.2
		c-2.3-0.5-3.9-0.7-4.6-0.7c-4.1,0-7.6,1.4-10.4,4.3c-2.8,2.9-4.2,6.5-4.2,10.8v32.2h-12.2V37.2H149.8z"/>
	<path fill="#FFFFFF" d="M231.7,37.2h12.2v58.1h-12.2V83.7c-6,8.8-13.3,13.2-22.2,13.2c-7.6,0-14.2-3-19.6-9
		c-5.4-6-8.1-13.3-8.1-21.9c0-8.1,2.7-15.2,8.2-21.3c5.5-6.1,11.9-9.1,19.3-9.1c4.6,0,8.9,1.2,13,3.7c4.1,2.5,7.2,5.7,9.5,9.7V37.2z
		 M233.4,66.4c0-5.3-1.9-9.8-5.7-13.6c-3.8-3.8-8.4-5.7-13.7-5.7c-5.2,0-9.7,1.9-13.5,5.6c-3.9,3.8-5.8,8.2-5.8,13.2
		c0,5.5,1.9,10.2,5.6,14c3.8,3.8,8.3,5.8,13.7,5.8c5.3,0,9.9-1.9,13.7-5.7C231.5,76.2,233.4,71.7,233.4,66.4z"/>
	<path fill="#FFFFFF" d="M256.3,37.2h12.8l16.6,33.6l16.1-33.6h12.9l-29.2,60.2L256.3,37.2z"/>
	<path fill="#FFFFFF" d="M380.5,68.6H331c1.1,6,3.5,10.3,7.4,13.1c3.8,2.7,8,4.1,12.5,4.1c6.9,0,12.8-2.9,17.5-8.7l8.9,6.8
		c-6.7,8.7-15.7,13-27,13c-8.6,0-15.9-3-21.7-8.9c-5.8-5.9-8.7-13.3-8.7-22c0-8.2,2.9-15.3,8.8-21.4c5.9-6,13.1-9,21.6-9
		c8.4,0,15.5,3.1,21.5,9.2C377.7,50.9,380.6,58.9,380.5,68.6z M332.2,58.8h35.5c-3.9-8-9.8-12-17.5-12
		C341.9,46.9,335.9,50.9,332.2,58.8z"/>
	<path fill="#FFFFFF" d="M396.3,3.9h12.2v91.4h-12.2V3.9z"/>
	<path fill="#88A9E7" d="M429.3,5.6h19.4c9.7,0,17.5,2.4,23.6,7.2c6.1,4.8,9.1,11,9.1,18.5c0,6-2,11.3-5.9,15.9
		c-3.9,4.6-10.1,7.8-18.4,9.7l26,38.4h-14l-24.9-36.9h-2.7v36.9h-12.2V5.6z M441.5,16.5v31.3c18.1,0.4,27.1-4.9,27.1-15.7
		c0-3.8-1.1-6.9-3.2-9.3c-2.1-2.4-4.9-4.1-8.4-4.9C453.5,16.9,448.4,16.5,441.5,16.5z"/>
	<path fill="#88A9E7" d="M552,68.6h-49.5c1.1,6,3.5,10.3,7.4,13.1s8,4.1,12.5,4.1c6.9,0,12.8-2.9,17.5-8.7l8.9,6.8
		c-6.7,8.7-15.7,13-27,13c-8.6,0-15.9-3-21.7-8.9s-8.7-13.3-8.7-22c0-8.2,2.9-15.3,8.8-21.4c5.9-6,13.1-9,21.6-9
		c8.4,0,15.5,3.1,21.5,9.2C549.1,50.9,552.1,58.9,552,68.6z M503.7,58.8h35.5c-3.9-8-9.8-12-17.5-12
		C513.3,46.9,507.3,50.9,503.7,58.8z"/>
	<path fill="#88A9E7" d="M615,37.2h12.2v58.1H615V83.7c-6,8.8-13.3,13.2-22.2,13.2c-7.6,0-14.2-3-19.6-9c-5.4-6-8.1-13.3-8.1-21.9
		c0-8.1,2.7-15.2,8.2-21.3c5.5-6.1,11.9-9.1,19.2-9.1c4.6,0,8.9,1.2,13,3.7c4.1,2.5,7.3,5.7,9.5,9.7V37.2z M616.7,66.4
		c0-5.3-1.9-9.8-5.7-13.6c-3.8-3.8-8.4-5.7-13.7-5.7c-5.2,0-9.7,1.9-13.5,5.6c-3.9,3.8-5.8,8.2-5.8,13.2c0,5.5,1.9,10.2,5.6,14
		c3.8,3.8,8.3,5.8,13.7,5.8c5.3,0,9.9-1.9,13.7-5.7C614.8,76.2,616.7,71.7,616.7,66.4z"/>
	<path fill="#88A9E7" d="M689.2,77.6v14c-6.2,3.6-12.3,5.3-18.2,5.3c-8,0-15.1-3-21.1-9c-6-6-9-13-9-20.9c0-9,3-16.5,9-22.4
		c6-5.9,13.5-8.9,22.6-8.9c5.4,0,11,1.4,16.7,4.2v13.7c-6.1-3.9-12-5.9-17.5-5.9c-5.1,0-9.5,1.8-13.3,5.3c-3.8,3.6-5.7,7.7-5.7,12.5
		c0,5.4,1.8,9.9,5.3,13.6c3.6,3.7,7.9,5.5,13.1,5.5C676.4,84.6,682.4,82.2,689.2,77.6z"/>
	<path fill="#88A9E7" d="M705,20.3h12.2v16.9h12.1v11.2h-12.1v46.9H705V48.4h-9.6V37.1h9.6V20.3z"/>
</g>
<g>
</g>
<g>
</g>
<g>
</g>
<g>
</g>
<g>
</g>
<g>
</g>
</svg>
