<?xml version="1.0" encoding="utf-8"?>
<!-- Generator: Adobe Illustrator 18.0.0, SVG Export Plug-In . SVG Version: 6.00 Build 0)  -->
<!DOCTYPE svg PUBLIC "-//W3C//DTD SVG 1.1//EN" "http://www.w3.org/Graphics/SVG/1.1/DTD/svg11.dtd">
<svg version="1.1" id="Layer_1" xmlns="http://www.w3.org/2000/svg" xmlns:xlink="http://www.w3.org/1999/xlink" x="0px" y="0px"
	 viewBox="0 0 500 414.8" enable-background="new 0 0 500 414.8" xml:space="preserve">
<g>
	<path fill="#656565" d="M15.2,13.6h52.9v339.1h127.7v52.9H15.2V13.6z"/>
	<path fill="#88A9E7" d="M258.3,13.6h84.9c42.3,0,76.7,10.5,103.2,31.5c26.6,21,39.8,47.9,39.8,80.8c0,26.3-8.6,49.4-25.8,69.5
		c-17.2,20.1-44,34.2-80.4,42.4L494,405.7h-61.4L323.9,244.4h-12v161.2h-53.5V13.6z M311.9,61v136.6c79,1.6,118.5-21.2,118.5-68.6
		c0-16.6-4.6-30.2-13.8-40.8c-9.2-10.6-21.5-17.7-36.9-21.5C364.2,62.9,341.6,61,311.9,61z"/>
</g>
<g>
</g>
<g>
</g>
<g>
</g>
<g>
</g>
<g>
</g>
<g>
</g>
</svg>
